<svg xmlns="http://www.w3.org/2000/svg" xmlns:xlink="http://www.w3.org/1999/xlink" id="processonSvg1000" viewBox="22.875 14.75 1130.5 671.625" width="1130.5" height="671.625"><defs id="ProcessOnDefs1001"><marker id="ProcessOnMarker1044" markerUnits="userSpaceOnUse" orient="auto" markerWidth="16.23606797749979" markerHeight="10.550836550532098" viewBox="-1.0 -1.3763819204711736 16.23606797749979 10.550836550532098" refX="-1.0" refY="3.8990363547948754"><path id="ProcessOnPath1045" d="M12.0 3.8990363547948754L0.0 7.798072709589751V0.0Z" stroke="#323232" stroke-width="2.0" fill="#323232" transform="matrix(1.0,0.0,0.0,1.0,0.0,0.0)"/></marker><marker id="ProcessOnMarker1051" markerUnits="userSpaceOnUse" orient="auto" markerWidth="16.23606797749979" markerHeight="10.550836550532098" viewBox="-1.0 -1.3763819204711736 16.23606797749979 10.550836550532098" refX="-1.0" refY="3.8990363547948754"><path id="ProcessOnPath1052" d="M12.0 3.8990363547948754L0.0 7.798072709589751V0.0Z" stroke="#323232" stroke-width="2.0" fill="#323232" transform="matrix(1.0,0.0,0.0,1.0,0.0,0.0)"/></marker><marker id="ProcessOnMarker1069" markerUnits="userSpaceOnUse" orient="auto" markerWidth="16.23606797749979" markerHeight="10.550836550532098" viewBox="-1.0 -1.3763819204711736 16.23606797749979 10.550836550532098" refX="-1.0" refY="3.8990363547948754"><path id="ProcessOnPath1070" d="M12.0 3.8990363547948754L0.0 7.798072709589751V0.0Z" stroke="#323232" stroke-width="2.0" fill="#323232" transform="matrix(1.0,0.0,0.0,1.0,0.0,0.0)"/></marker><marker id="ProcessOnMarker1076" markerUnits="userSpaceOnUse" orient="auto" markerWidth="16.23606797749979" markerHeight="10.550836550532098" viewBox="-1.0 -1.3763819204711736 16.23606797749979 10.550836550532098" refX="-1.0" refY="3.8990363547948754"><path id="ProcessOnPath1077" d="M12.0 3.8990363547948754L0.0 7.798072709589751V0.0Z" stroke="#323232" stroke-width="2.0" fill="#323232" transform="matrix(1.0,0.0,0.0,1.0,0.0,0.0)"/></marker><marker id="ProcessOnMarker1083" markerUnits="userSpaceOnUse" orient="auto" markerWidth="16.23606797749979" markerHeight="10.550836550532098" viewBox="-1.0 -1.3763819204711736 16.23606797749979 10.550836550532098" refX="-1.0" refY="3.8990363547948754"><path id="ProcessOnPath1084" d="M12.0 3.8990363547948754L0.0 7.798072709589751V0.0Z" stroke="#323232" stroke-width="2.0" fill="#323232" transform="matrix(1.0,0.0,0.0,1.0,0.0,0.0)"/></marker><marker id="ProcessOnMarker1090" markerUnits="userSpaceOnUse" orient="auto" markerWidth="16.23606797749979" markerHeight="10.550836550532098" viewBox="-1.0 -1.3763819204711736 16.23606797749979 10.550836550532098" refX="-1.0" refY="3.8990363547948754"><path id="ProcessOnPath1091" d="M12.0 3.8990363547948754L0.0 7.798072709589751V0.0Z" stroke="#323232" stroke-width="2.0" fill="#323232" transform="matrix(1.0,0.0,0.0,1.0,0.0,0.0)"/></marker><marker id="ProcessOnMarker1097" markerUnits="userSpaceOnUse" orient="auto" markerWidth="16.23606797749979" markerHeight="10.550836550532098" viewBox="-1.0 -1.3763819204711736 16.23606797749979 10.550836550532098" refX="-1.0" refY="3.8990363547948754"><path id="ProcessOnPath1098" d="M12.0 3.8990363547948754L0.0 7.798072709589751V0.0Z" stroke="#323232" stroke-width="2.0" fill="#323232" transform="matrix(1.0,0.0,0.0,1.0,0.0,0.0)"/></marker><marker id="ProcessOnMarker1104" markerUnits="userSpaceOnUse" orient="auto" markerWidth="16.23606797749979" markerHeight="10.550836550532098" viewBox="-1.0 -1.3763819204711736 16.23606797749979 10.550836550532098" refX="-1.0" refY="3.8990363547948754"><path id="ProcessOnPath1105" d="M12.0 3.8990363547948754L0.0 7.798072709589751V0.0Z" stroke="#323232" stroke-width="2.0" fill="#323232" transform="matrix(1.0,0.0,0.0,1.0,0.0,0.0)"/></marker><marker id="ProcessOnMarker1111" markerUnits="userSpaceOnUse" orient="auto" markerWidth="16.23606797749979" markerHeight="10.550836550532098" viewBox="-1.0 -1.3763819204711736 16.23606797749979 10.550836550532098" refX="-1.0" refY="3.8990363547948754"><path id="ProcessOnPath1112" d="M12.0 3.8990363547948754L0.0 7.798072709589751V0.0Z" stroke="#323232" stroke-width="2.0" fill="#323232" transform="matrix(1.0,0.0,0.0,1.0,0.0,0.0)"/></marker><marker id="ProcessOnMarker1118" markerUnits="userSpaceOnUse" orient="auto" markerWidth="16.23606797749979" markerHeight="10.550836550532098" viewBox="-1.0 -1.3763819204711736 16.23606797749979 10.550836550532098" refX="-1.0" refY="3.8990363547948754"><path id="ProcessOnPath1119" d="M12.0 3.8990363547948754L0.0 7.798072709589751V0.0Z" stroke="#323232" stroke-width="2.0" fill="#323232" transform="matrix(1.0,0.0,0.0,1.0,0.0,0.0)"/></marker><marker id="ProcessOnMarker1125" markerUnits="userSpaceOnUse" orient="auto" markerWidth="16.23606797749979" markerHeight="10.550836550532098" viewBox="-1.0 -1.3763819204711736 16.23606797749979 10.550836550532098" refX="-1.0" refY="3.8990363547948754"><path id="ProcessOnPath1126" d="M12.0 3.8990363547948754L0.0 7.798072709589751V0.0Z" stroke="#323232" stroke-width="2.0" fill="#323232" transform="matrix(1.0,0.0,0.0,1.0,0.0,0.0)"/></marker><marker id="ProcessOnMarker1132" markerUnits="userSpaceOnUse" orient="auto" markerWidth="16.23606797749979" markerHeight="10.550836550532098" viewBox="-1.0 -1.3763819204711736 16.23606797749979 10.550836550532098" refX="-1.0" refY="3.8990363547948754"><path id="ProcessOnPath1133" d="M12.0 3.8990363547948754L0.0 7.798072709589751V0.0Z" stroke="#323232" stroke-width="2.0" fill="#323232" transform="matrix(1.0,0.0,0.0,1.0,0.0,0.0)"/></marker><marker id="ProcessOnMarker1139" markerUnits="userSpaceOnUse" orient="auto" markerWidth="16.23606797749979" markerHeight="10.550836550532098" viewBox="-1.0 -1.3763819204711736 16.23606797749979 10.550836550532098" refX="-1.0" refY="3.8990363547948754"><path id="ProcessOnPath1140" d="M12.0 3.8990363547948754L0.0 7.798072709589751V0.0Z" stroke="#323232" stroke-width="2.0" fill="#323232" transform="matrix(1.0,0.0,0.0,1.0,0.0,0.0)"/></marker><marker id="ProcessOnMarker1146" markerUnits="userSpaceOnUse" orient="auto" markerWidth="16.23606797749979" markerHeight="10.550836550532098" viewBox="-1.0 -1.3763819204711736 16.23606797749979 10.550836550532098" refX="-1.0" refY="3.8990363547948754"><path id="ProcessOnPath1147" d="M12.0 3.8990363547948754L0.0 7.798072709589751V0.0Z" stroke="#323232" stroke-width="2.0" fill="#323232" transform="matrix(1.0,0.0,0.0,1.0,0.0,0.0)"/></marker><marker id="ProcessOnMarker1153" markerUnits="userSpaceOnUse" orient="auto" markerWidth="16.23606797749979" markerHeight="10.550836550532098" viewBox="-1.0 -1.3763819204711736 16.23606797749979 10.550836550532098" refX="-1.0" refY="3.8990363547948754"><path id="ProcessOnPath1154" d="M12.0 3.8990363547948754L0.0 7.798072709589751V0.0Z" stroke="#323232" stroke-width="2.0" fill="#323232" transform="matrix(1.0,0.0,0.0,1.0,0.0,0.0)"/></marker><marker id="ProcessOnMarker1160" markerUnits="userSpaceOnUse" orient="auto" markerWidth="16.23606797749979" markerHeight="10.550836550532098" viewBox="-1.0 -1.3763819204711736 16.23606797749979 10.550836550532098" refX="-1.0" refY="3.8990363547948754"><path id="ProcessOnPath1161" d="M12.0 3.8990363547948754L0.0 7.798072709589751V0.0Z" stroke="#323232" stroke-width="2.0" fill="#323232" transform="matrix(1.0,0.0,0.0,1.0,0.0,0.0)"/></marker><marker id="ProcessOnMarker1167" markerUnits="userSpaceOnUse" orient="auto" markerWidth="16.23606797749979" markerHeight="10.550836550532098" viewBox="-1.0 -1.3763819204711736 16.23606797749979 10.550836550532098" refX="-1.0" refY="3.8990363547948754"><path id="ProcessOnPath1168" d="M12.0 3.8990363547948754L0.0 7.798072709589751V0.0Z" stroke="#323232" stroke-width="2.0" fill="#323232" transform="matrix(1.0,0.0,0.0,1.0,0.0,0.0)"/></marker><marker id="ProcessOnMarker1174" markerUnits="userSpaceOnUse" orient="auto" markerWidth="16.23606797749979" markerHeight="10.550836550532098" viewBox="-1.0 -1.3763819204711736 16.23606797749979 10.550836550532098" refX="-1.0" refY="3.8990363547948754"><path id="ProcessOnPath1175" d="M12.0 3.8990363547948754L0.0 7.798072709589751V0.0Z" stroke="#323232" stroke-width="2.0" fill="#323232" transform="matrix(1.0,0.0,0.0,1.0,0.0,0.0)"/></marker></defs><g id="ProcessOnG1002"><path id="ProcessOnPath1003" d="M22.875 14.75H1153.375V686.375H22.875V14.75Z" fill="none"/><g id="ProcessOnG1004"><g id="ProcessOnG1005" transform="matrix(1.0,0.0,0.0,1.0,472.5,205.25)" opacity="1.0"><g id="ProcessOnG1007" transform="matrix(1.0,0.0,0.0,1.0,0.0,0.0)"> <path fill="#00BCF2" d="M12.171,71.513v-2.488l4.199-0.093c8.087-0.18,11.128-1.028,12.413-3.463 c0.395-0.75,0.423-0.929,0.401-2.611c-0.013-1.182-0.123-2.208-0.317-2.98L28.57,58.7l-12.557-0.079l-12.56-0.079l-0.801-0.364 c-0.938-0.422-1.77-1.236-2.287-2.225L0,55.247V29.271V3.297l0.354-0.663c0.555-1.041,1.242-1.72,2.209-2.194L3.453,0h36.274h36.274 l1.019,0.486c1.212,0.576,2.097,1.419,2.606,2.497L80,3.768V29.32v25.553l-0.423,0.87c-0.501,1.016-1.354,1.809-2.559,2.388 l-0.865,0.411L63.25,58.584l-12.91,0.047l-0.235,0.823c-0.698,2.443-0.913,4.854-0.547,6.082c0.735,2.448,4.252,3.432,12.265,3.443 h2.789v2.51V74H38.391H12.165v-2.489L12.171,71.513z M73.881,29.271V6.2h-33.84H6.203v23.071V52.34h33.838h33.842V29.271H73.881z"/>  </g><g id="ProcessOnG1008" transform="matrix(1.0,0.0,0.0,1.0,-20.0,80.875)"><text id="ProcessOnText1009" fill="#000000" font-size="13" x="59.0" y="13.325" font-family="微软雅黑" font-weight="normal" font-style="normal" text-decoration="none" family="微软雅黑" text-anchor="middle" size="13">网页客户端</text></g></g><g id="ProcessOnG1010" transform="matrix(1.0,0.0,0.0,1.0,489.5,72.875)" opacity="1.0"><g id="ProcessOnG1012" transform="matrix(1.0,0.0,0.0,1.0,0.0,0.0)"> <path fill="#00BCF2" d="M3.115,74.693c-1.005-0.387-2.146-1.497-2.658-2.593l-0.399-0.847L0.02,37.815 C-0.022,0.852-0.091,3.552,0.914,2.145c0.629-0.886,1.42-1.495,2.41-1.864c0.803-0.299,0.952-0.302,22.365-0.263l21.557,0.04 l0.999,0.489c1.167,0.574,1.975,1.479,2.45,2.753L51,4.117l-0.036,33.572l-0.039,33.572l-0.482,0.981 c-0.581,1.178-1.506,2.043-2.633,2.464c-0.794,0.298-1.035,0.3-22.358,0.292C4.179,74.988,3.879,74.986,3.115,74.693L3.115,74.693z M30.727,69.681c0.471-0.214,0.808-0.82,0.808-1.448c0-0.332-0.144-0.607-0.501-0.966l-0.497-0.497h-4.743 c-5.227,0-5.387,0.022-5.841,0.901c-0.324,0.624-0.171,1.335,0.396,1.812l0.448,0.375h4.773 C28.956,69.857,30.453,69.806,30.727,69.681z M45.838,34.919V7.924H25.491H5.143v26.995v26.993H25.49h20.347L45.838,34.919 L45.838,34.919z M35.215,4.955c0.207-0.222,0.301-0.521,0.301-0.962c0-0.826-0.447-1.302-1.345-1.433 c-0.963-0.14-17.559-0.024-17.863,0.125c-0.713,0.347-0.908,1.66-0.333,2.232l0.36,0.361h9.291h9.29L35.215,4.955z"/>  </g><g id="ProcessOnG1013" transform="matrix(1.0,0.0,0.0,1.0,-20.0,81.875)"><text id="ProcessOnText1014" fill="#000000" font-size="13" x="44.5" y="13.325" font-family="微软雅黑" font-weight="normal" font-style="normal" text-decoration="none" family="微软雅黑" text-anchor="middle" size="13">手机客户端</text></g></g><g id="ProcessOnG1015" transform="matrix(1.0,0.0,0.0,1.0,1057.5,255.5)" opacity="1.0"><g id="ProcessOnG1017" transform="matrix(1.0,0.0,0.0,1.0,0.0,0.0)"> <path fill="#00BCF2" d="M24.211,76.971c-0.292-0.031-1.178-0.132-1.968-0.218c-6.654-0.741-12.902-2.787-17.417-5.702 c-1.655-1.069-3.71-3.143-4.316-4.351l-0.453-0.907L0.018,38.084C-0.022,10.667-0.02,10.367,0.28,9.572 c1.37-3.626,8.025-7.083,16.661-8.654C21.065,0.167,23.036,0.007,28.301,0c5.018-0.007,6.369,0.086,10.071,0.69 c4.442,0.724,8.55,1.938,11.701,3.46c3.363,1.624,5.494,3.411,6.438,5.401L57,10.583v27.453c0,26.556-0.011,27.478-0.284,28.21 c-1.405,3.711-7.053,7.219-14.861,9.229c-4.329,1.112-7.087,1.444-12.57,1.508C26.786,77.009,24.502,77.005,24.211,76.971 L24.211,76.971z M47.727,54.17c2.018-0.575,3.495-1.72,3.95-3.05c0.22-0.641,0.251-1.59,0.251-7.362v-6.629h-2.8h-2.8l-0.042,4.047 l-0.039,4.043l-2.964-0.011c-1.628-0.005-3.079-0.056-3.217-0.106c-0.234-0.09-0.257-0.482-0.257-4.037v-3.937l-3.825,0.004 l-3.823,0.005l0.72,0.411l0.719,0.411v3.715c0,4.23,0.101,4.817,1.014,5.881c0.743,0.871,2.288,1.588,3.882,1.809 c0.649,0.093,2.228,0.167,3.505,0.167c1.882,0,2.507-0.058,3.279-0.296c0.523-0.163,0.979-0.271,1.011-0.238 c0.034,0.032-0.021,0.303-0.117,0.598c-0.335,1.013-0.212,0.996-6.474,0.996h-5.647v1.979v1.979l6.4-0.063 C45.807,54.432,46.996,54.379,47.727,54.17L47.727,54.17z M20.536,49.326c0.429-0.218,0.954-0.623,1.167-0.9 c0.213-0.279,1.142-2.168,2.065-4.2c0.923-2.032,1.742-3.759,1.82-3.837c0.086-0.089,0.14,1.676,0.14,4.575v4.72h2.802h2.804V43.33 c0-4.974,0.04-6.354,0.189-6.364c0.149-0.009,0.149-0.026,0-0.088c-0.135-0.054-0.191-0.514-0.192-1.539 c0-1.708-0.252-2.407-1.11-3.161c-1.121-0.983-4.097-1.352-5.575-0.688c-1.527,0.685-1.751,1.076-5.787,10.14 c-0.342,0.769-0.667,1.397-0.722,1.397s-0.966-2.024-2.027-4.498c-2.312-5.396-2.357-5.486-3.03-6.159 c-1.069-1.067-2.322-1.403-4.24-1.136c-1.651,0.229-2.479,0.658-2.913,1.509l-0.341,0.668v8.137v8.136H8.16h2.574v-4.72 c0-2.81,0.056-4.661,0.138-4.575c0.075,0.078,0.83,1.674,1.676,3.546c1.82,4.022,2.11,4.55,2.821,5.089 C16.56,49.933,19.049,50.078,20.536,49.326L20.536,49.326z M32.922,16.248c7.135-0.528,12.777-2.118,14.853-4.188 c0.88-0.879,1.105-1.616,0.768-2.503c-0.861-2.254-5.434-4.088-12.592-5.055c-2.899-0.389-12.167-0.388-15.07,0.002 c-5.632,0.759-9.815,2.118-11.609,3.77c-1.157,1.068-1.378,1.874-0.813,2.98c0.417,0.817,1.202,1.423,2.957,2.283 c2.914,1.427,7.346,2.354,13.252,2.767C26.342,16.423,30.987,16.391,32.922,16.248z"/>  </g></g><g id="ProcessOnG1018" transform="matrix(1.0,0.0,0.0,1.0,304.75,382.5)" opacity="1.0"><g id="ProcessOnG1020" transform="matrix(1.0,0.0,0.0,1.0,0.0,0.0)"> <path fill="#00BCF2" d="M1.691,23.722c-0.731-0.334-1.349-1.041-1.564-1.788c-0.11-0.379-0.146-3.639-0.117-10.245l0.047-9.691 l0.425-0.618c0.266-0.389,0.711-0.764,1.185-1L2.423,0H38h35.573l0.787,0.394c0.514,0.256,0.922,0.603,1.185,1.001l0.399,0.607 l0.046,9.689c0.029,6.607-0.006,9.864-0.117,10.243c-0.218,0.748-0.831,1.454-1.563,1.788C73.729,23.986,72.323,24,38,24 C3.676,23.998,2.268,23.984,1.691,23.722L1.691,23.722z M7.95,20.389c1.541-1.047,1.459-3.533-0.145-4.442 c-1.992-1.137-4.312,0.581-3.882,2.873c0.116,0.634,0.86,1.54,1.497,1.832C6.085,20.955,7.307,20.827,7.95,20.389L7.95,20.389z M70.813,19.645c0.201-0.104,0.289-0.313,0.289-0.669c0-0.353-0.088-0.562-0.289-0.671c-0.188-0.1-2.998-0.155-8.098-0.155 c-8.481,0-8.354-0.012-8.354,0.827c0,0.843-0.127,0.83,8.354,0.83C67.815,19.803,70.625,19.75,70.813,19.645z M70.813,16.645 c0.176-0.096,0.288-0.311,0.287-0.56c-0.006-0.902,0.438-0.856-8.234-0.898c-8.661-0.048-8.505-0.062-8.505,0.788 c0,0.839-0.127,0.825,8.354,0.825C67.815,16.8,70.625,16.751,70.813,16.645L70.813,16.645z M70.813,13.646 c0.409-0.223,0.381-0.963-0.046-1.263c-0.283-0.203-1.293-0.233-7.965-0.233c-4.306,0-7.794,0.063-8,0.14 c-0.459,0.178-0.608,0.728-0.317,1.172l0.222,0.337h7.912C67.782,13.799,70.625,13.744,70.813,13.646L70.813,13.646z"/>  </g><g id="ProcessOnG1021" transform="matrix(1.0,0.0,0.0,1.0,-20.0,22.75)"><text id="ProcessOnText1022" fill="#000000" font-size="13" x="57.0" y="13.325" font-family="微软雅黑" font-weight="normal" font-style="normal" text-decoration="none" family="微软雅黑" text-anchor="middle" size="13">vc-chat-server集</text><text id="ProcessOnText1023" fill="#000000" font-size="13" x="57.0" y="29.575" font-family="微软雅黑" font-weight="normal" font-style="normal" text-decoration="none" family="微软雅黑" text-anchor="middle" size="13">群</text></g></g><g id="ProcessOnG1024" transform="matrix(1.0,0.0,0.0,1.0,122.5,200.0)" opacity="1.0"><g id="ProcessOnG1026" transform="matrix(1.5533333333333332,0.0,0.0,1.3133333333333332,0.0,0.0)"> <g id="Layer_1"> <circle fill="#9D5025" cx="37.44" cy="39.038" r="35.962"/> <rect x="1.479" y="35.962" fill="#9D5025" width="72.043" height="2.958"/> <circle fill="#F58536" cx="37.44" cy="35.962" r="35.962"/> <path fill="#FFFFFF" d="M10.352,39.629v-0.946c0-3.548,2.72-8.162,6.624-9.937c0.354-7.689,6.743-13.841,14.551-13.841 c5.204,0,10.055,2.839,12.539,7.216c0.947-0.473,2.13-0.71,3.194-0.71c4.022,0,7.217,2.839,7.926,6.625 c5.441,1.065,9.346,6.27,9.346,10.646v0.829c0,5.323-5.561,10.055-11.829,10.055h-30.64C15.793,49.566,10.352,44.952,10.352,39.629 z"/> <g> <path fill="#F58536" d="M44.894,25.907l-2.247,1.538l-1.183-2.484c-1.774-3.785-5.679-6.388-9.938-6.388 c-2.958,0-5.679,1.183-7.689,3.194c-2.012,2.01-3.194,4.731-3.194,7.689v2.011l-1.656,0.473c-2.721,0.828-4.968,4.377-4.968,6.743 v0.829c0,2.957,3.549,6.269,8.044,6.269h30.757c4.614,0,8.044-3.431,8.044-6.269v-0.829c0-2.957-3.312-6.86-7.098-7.097 l-2.012-0.119l-0.117-2.129c-0.118-2.366-2.012-4.141-4.377-4.141C46.431,25.197,45.604,25.434,44.894,25.907z"/> </g> </g>  </g><g id="ProcessOnG1027" transform="matrix(1.0,0.0,0.0,1.0,-20.0,105.375)"><text id="ProcessOnText1028" fill="#000000" font-size="13" x="77.25" y="13.325" font-family="微软雅黑" font-weight="normal" font-style="normal" text-decoration="none" family="微软雅黑" text-anchor="middle" size="13">阿里云网关/nginx</text></g></g><g id="ProcessOnG1029" transform="matrix(1.0,0.0,0.0,1.0,62.875,588.5)" opacity="1.0"><g id="ProcessOnG1031" transform="matrix(1.0,0.0,0.0,1.0,0.0,0.0)"> <path fill="#00BCF2" d="M1.691,23.722c-0.731-0.334-1.349-1.041-1.564-1.788c-0.11-0.379-0.146-3.639-0.117-10.245l0.047-9.691 l0.425-0.618c0.266-0.389,0.711-0.764,1.185-1L2.423,0H38h35.573l0.787,0.394c0.514,0.256,0.922,0.603,1.185,1.001l0.399,0.607 l0.046,9.689c0.029,6.607-0.006,9.864-0.117,10.243c-0.218,0.748-0.831,1.454-1.563,1.788C73.729,23.986,72.323,24,38,24 C3.676,23.998,2.268,23.984,1.691,23.722L1.691,23.722z M7.95,20.389c1.541-1.047,1.459-3.533-0.145-4.442 c-1.992-1.137-4.312,0.581-3.882,2.873c0.116,0.634,0.86,1.54,1.497,1.832C6.085,20.955,7.307,20.827,7.95,20.389L7.95,20.389z M70.813,19.645c0.201-0.104,0.289-0.313,0.289-0.669c0-0.353-0.088-0.562-0.289-0.671c-0.188-0.1-2.998-0.155-8.098-0.155 c-8.481,0-8.354-0.012-8.354,0.827c0,0.843-0.127,0.83,8.354,0.83C67.815,19.803,70.625,19.75,70.813,19.645z M70.813,16.645 c0.176-0.096,0.288-0.311,0.287-0.56c-0.006-0.902,0.438-0.856-8.234-0.898c-8.661-0.048-8.505-0.062-8.505,0.788 c0,0.839-0.127,0.825,8.354,0.825C67.815,16.8,70.625,16.751,70.813,16.645L70.813,16.645z M70.813,13.646 c0.409-0.223,0.381-0.963-0.046-1.263c-0.283-0.203-1.293-0.233-7.965-0.233c-4.306,0-7.794,0.063-8,0.14 c-0.459,0.178-0.608,0.728-0.317,1.172l0.222,0.337h7.912C67.782,13.799,70.625,13.744,70.813,13.646L70.813,13.646z"/>  </g><g id="ProcessOnG1032" transform="matrix(1.0,0.0,0.0,1.0,-20.0,30.875)"><text id="ProcessOnText1033" fill="#000000" font-size="13" x="57.0" y="13.325" font-family="微软雅黑" font-weight="normal" font-style="normal" text-decoration="none" family="微软雅黑" text-anchor="middle" size="13">oauth2验证服务</text></g></g><g id="ProcessOnG1034" transform="matrix(1.0,0.0,0.0,1.0,990.5,354.0)" opacity="1.0"><g id="ProcessOnG1036" transform="matrix(1.0,0.0,0.0,1.0,0.0,0.0)"> <path fill="#00BCF2" d="M27.589,1.254c-14.897,0-26.983,3.913-27.451,8.761H0.069v54.249C0.045,64.418,0,64.589,0,64.744 c0,0.099,0.06,0.18,0.069,0.275c0.468,4.85,12.554,8.727,27.451,8.727c4.811,0,9.302-0.388,13.228-1.1 c-5.567-1.259-9.253-3.331-9.483-5.703c-0.006-0.076-0.068-0.162-0.068-0.24c0-0.125,0.05-0.255,0.068-0.378V22.968h0.035 c0.375-3.874,10.018-6.975,21.919-6.975c0.641,0,1.265,0.018,1.89,0.035v-6.013h-0.068C54.573,5.167,42.487,1.254,27.589,1.254z M25.802,5.48c0.703-0.02,1.409,0,2.13,0c11.549,0,20.889,2.532,20.889,5.634c0,3.104-9.34,5.634-20.889,5.634 c-11.548,0-20.923-2.53-20.923-5.634C7.009,8.206,15.259,5.77,25.802,5.48z M53.459,16.68c-11.662,0-21.106,3.042-21.473,6.837 h-0.069v42.464c-0.018,0.12-0.034,0.257-0.034,0.378c0,0.076,0.028,0.165,0.034,0.24c0.366,3.797,9.811,6.837,21.473,6.837 c11.663,0,21.142-3.04,21.507-6.837H75V23.517h-0.068C74.566,19.722,65.121,16.68,53.459,16.68L53.459,16.68z M53.734,19.978 c9.041,0,16.354,1.969,16.354,4.398c0,2.43-7.313,4.432-16.354,4.432c-9.04,0-16.388-2.002-16.388-4.432 C37.346,21.948,44.694,19.978,53.734,19.978z M62.186,32.209L52.36,48.563l9.826-0.103L44.114,67.493l7.662-15.46h-7.662 L62.186,32.209L62.186,32.209z"/>  </g><g id="ProcessOnG1037" transform="matrix(1.0,0.0,0.0,1.0,-20.0,57.5)"><text id="ProcessOnText1038" fill="#000000" font-size="13" x="56.5" y="13.325" font-family="微软雅黑" font-weight="normal" font-style="normal" text-decoration="none" family="微软雅黑" text-anchor="middle" size="13">redis</text><text id="ProcessOnText1039" fill="#000000" font-size="13" x="56.5" y="29.575" font-family="微软雅黑" font-weight="normal" font-style="normal" text-decoration="none" family="微软雅黑" text-anchor="middle" size="13">用户id|socketIo创</text><text id="ProcessOnText1040" fill="#000000" font-size="13" x="56.5" y="45.825" font-family="微软雅黑" font-weight="normal" font-style="normal" text-decoration="none" family="微软雅黑" text-anchor="middle" size="13">建的sessionId|连接</text><text id="ProcessOnText1041" fill="#000000" font-size="13" x="56.5" y="62.075" font-family="微软雅黑" font-weight="normal" font-style="normal" text-decoration="none" family="微软雅黑" text-anchor="middle" size="13">信息</text></g></g><g id="ProcessOnG1042"><path id="ProcessOnPath1043" d="M138.875 600.5L342.75 600.5L342.75 421.7360679774998" stroke="#323232" stroke-width="2.0" stroke-dasharray="none" fill="none" marker-end="url(#ProcessOnMarker1044)"/><g id="ProcessOnG1046" transform="matrix(1.0,0.0,0.0,1.0,330.19446601125014,592.375)"><path id="ProcessOnPath1047" d="M0 0H89.0V16.25H0Z" fill="#fff" transform="matrix(1.0,0.0,0.0,1.0,-44.5,0.0)"/><text id="ProcessOnText1048" fill="#000000" font-size="13" x="0.0" y="13.325" font-family="微软雅黑" font-weight="normal" font-style="normal" text-decoration="none" family="微软雅黑" text-anchor="middle" size="13">6.返回用户信息</text></g></g><g id="ProcessOnG1049"><path id="ProcessOnPath1050" d="M380.75 394.5L685.625 394.5L685.625 391.5L975.2639320225002 391.5" stroke="#323232" stroke-width="2.0" stroke-dasharray="none" fill="none" marker-end="url(#ProcessOnMarker1051)"/><g id="ProcessOnG1053" transform="matrix(1.0,0.0,0.0,1.0,679.5069660112501,386.375)"><path id="ProcessOnPath1054" d="M0 0H89.0V16.25H0Z" fill="#fff" transform="matrix(1.0,0.0,0.0,1.0,-44.5,0.0)"/><text id="ProcessOnText1055" fill="#000000" font-size="13" x="0.0" y="13.325" font-family="微软雅黑" font-weight="normal" font-style="normal" text-decoration="none" family="微软雅黑" text-anchor="middle" size="13">7.缓存连接信息</text></g></g><g id="ProcessOnG1056" transform="matrix(1.0,0.0,0.0,1.0,782.5,283.5)" opacity="1.0"><g id="ProcessOnG1058" transform="matrix(1.1578947368421053,0.0,0.0,0.875,0.0,0.0)"> <path fill="#00BCF2" d="M1.691,23.722c-0.731-0.334-1.349-1.041-1.564-1.788c-0.11-0.379-0.146-3.639-0.117-10.245l0.047-9.691 l0.425-0.618c0.266-0.389,0.711-0.764,1.185-1L2.423,0H38h35.573l0.787,0.394c0.514,0.256,0.922,0.603,1.185,1.001l0.399,0.607 l0.046,9.689c0.029,6.607-0.006,9.864-0.117,10.243c-0.218,0.748-0.831,1.454-1.563,1.788C73.729,23.986,72.323,24,38,24 C3.676,23.998,2.268,23.984,1.691,23.722L1.691,23.722z M7.95,20.389c1.541-1.047,1.459-3.533-0.145-4.442 c-1.992-1.137-4.312,0.581-3.882,2.873c0.116,0.634,0.86,1.54,1.497,1.832C6.085,20.955,7.307,20.827,7.95,20.389L7.95,20.389z M70.813,19.645c0.201-0.104,0.289-0.313,0.289-0.669c0-0.353-0.088-0.562-0.289-0.671c-0.188-0.1-2.998-0.155-8.098-0.155 c-8.481,0-8.354-0.012-8.354,0.827c0,0.843-0.127,0.83,8.354,0.83C67.815,19.803,70.625,19.75,70.813,19.645z M70.813,16.645 c0.176-0.096,0.288-0.311,0.287-0.56c-0.006-0.902,0.438-0.856-8.234-0.898c-8.661-0.048-8.505-0.062-8.505,0.788 c0,0.839-0.127,0.825,8.354,0.825C67.815,16.8,70.625,16.751,70.813,16.645L70.813,16.645z M70.813,13.646 c0.409-0.223,0.381-0.963-0.046-1.263c-0.283-0.203-1.293-0.233-7.965-0.233c-4.306,0-7.794,0.063-8,0.14 c-0.459,0.178-0.608,0.728-0.317,1.172l0.222,0.337h7.912C67.782,13.799,70.625,13.744,70.813,13.646L70.813,13.646z"/>  </g><g id="ProcessOnG1059" transform="matrix(1.0,0.0,0.0,1.0,-20.0,19.75)"><text id="ProcessOnText1060" fill="#000000" font-size="13" x="63.0" y="13.325" font-family="微软雅黑" font-weight="normal" font-style="normal" text-decoration="none" family="微软雅黑" text-anchor="middle" size="13">消息存储/逻辑处理 </text><text id="ProcessOnText1061" fill="#000000" font-size="13" x="63.0" y="29.575" font-family="微软雅黑" font-weight="normal" font-style="normal" text-decoration="none" family="微软雅黑" text-anchor="middle" size="13">集群</text></g></g><g id="ProcessOnG1062" transform="matrix(1.0,0.0,0.0,1.0,813.875,160.875)" opacity="1.0"><g id="ProcessOnG1064" transform="matrix(1.1578947368421053,0.0,0.0,0.875,0.0,0.0)"> <path fill="#00BCF2" d="M1.691,23.722c-0.731-0.334-1.349-1.041-1.564-1.788c-0.11-0.379-0.146-3.639-0.117-10.245l0.047-9.691 l0.425-0.618c0.266-0.389,0.711-0.764,1.185-1L2.423,0H38h35.573l0.787,0.394c0.514,0.256,0.922,0.603,1.185,1.001l0.399,0.607 l0.046,9.689c0.029,6.607-0.006,9.864-0.117,10.243c-0.218,0.748-0.831,1.454-1.563,1.788C73.729,23.986,72.323,24,38,24 C3.676,23.998,2.268,23.984,1.691,23.722L1.691,23.722z M7.95,20.389c1.541-1.047,1.459-3.533-0.145-4.442 c-1.992-1.137-4.312,0.581-3.882,2.873c0.116,0.634,0.86,1.54,1.497,1.832C6.085,20.955,7.307,20.827,7.95,20.389L7.95,20.389z M70.813,19.645c0.201-0.104,0.289-0.313,0.289-0.669c0-0.353-0.088-0.562-0.289-0.671c-0.188-0.1-2.998-0.155-8.098-0.155 c-8.481,0-8.354-0.012-8.354,0.827c0,0.843-0.127,0.83,8.354,0.83C67.815,19.803,70.625,19.75,70.813,19.645z M70.813,16.645 c0.176-0.096,0.288-0.311,0.287-0.56c-0.006-0.902,0.438-0.856-8.234-0.898c-8.661-0.048-8.505-0.062-8.505,0.788 c0,0.839-0.127,0.825,8.354,0.825C67.815,16.8,70.625,16.751,70.813,16.645L70.813,16.645z M70.813,13.646 c0.409-0.223,0.381-0.963-0.046-1.263c-0.283-0.203-1.293-0.233-7.965-0.233c-4.306,0-7.794,0.063-8,0.14 c-0.459,0.178-0.608,0.728-0.317,1.172l0.222,0.337h7.912C67.782,13.799,70.625,13.744,70.813,13.646L70.813,13.646z"/>  </g><g id="ProcessOnG1065" transform="matrix(1.0,0.0,0.0,1.0,-20.0,27.875)"><text id="ProcessOnText1066" fill="#000000" font-size="13" x="63.0" y="13.325" font-family="微软雅黑" font-weight="normal" font-style="normal" text-decoration="none" family="微软雅黑" text-anchor="middle" size="13">业务系统/500px主站</text></g></g><g id="ProcessOnG1067"><path id="ProcessOnPath1068" d="M901.875 171.375L931.875 171.375L931.875 253.5L826.5 253.5L826.5 268.2639320225002" stroke="#323232" stroke-width="2.0" stroke-dasharray="none" fill="none" marker-end="url(#ProcessOnMarker1069)"/><g id="ProcessOnG1071" transform="matrix(1.0,0.0,0.0,1.0,927.8680339887499,245.375)"><path id="ProcessOnPath1072" d="M0 0H115.0V16.25H0Z" fill="#fff" transform="matrix(1.0,0.0,0.0,1.0,-57.5,0.0)"/><text id="ProcessOnText1073" fill="#000000" font-size="13" x="0.0" y="13.325" font-family="微软雅黑" font-weight="normal" font-style="normal" text-decoration="none" family="微软雅黑" text-anchor="middle" size="13">9.rpc/http进行调用</text></g></g><g id="ProcessOnG1074"><path id="ProcessOnPath1075" d="M870.5 294.0L964.0 294.0L964.0 294.0L1042.2639320225003 294.0" stroke="#323232" stroke-width="2.0" stroke-dasharray="none" fill="none" marker-end="url(#ProcessOnMarker1076)"/><g id="ProcessOnG1078" transform="matrix(1.0,0.0,0.0,1.0,956.3819660112501,285.875)"><path id="ProcessOnPath1079" d="M0 0H71.0V16.25H0Z" fill="#fff" transform="matrix(1.0,0.0,0.0,1.0,-35.5,0.0)"/><text id="ProcessOnText1080" fill="#000000" font-size="13" x="0.0" y="13.325" font-family="微软雅黑" font-weight="normal" font-style="normal" text-decoration="none" family="微软雅黑" text-anchor="middle" size="13">10.存储消息</text></g></g><g id="ProcessOnG1081"><path id="ProcessOnPath1082" d="M826.5 304.5L826.5 343.75L369.0 343.75L369.0 367.7639320225002" stroke="#323232" stroke-width="2.0" stroke-dasharray="none" fill="none" marker-end="url(#ProcessOnMarker1083)"/><g id="ProcessOnG1085" transform="matrix(1.0,0.0,0.0,1.0,605.3680339887499,335.625)"><path id="ProcessOnPath1086" d="M0 0H265.0V16.25H0Z" fill="#fff" transform="matrix(1.0,0.0,0.0,1.0,-132.5,0.0)"/><text id="ProcessOnText1087" fill="#000000" font-size="13" x="0.0" y="13.325" font-family="微软雅黑" font-weight="normal" font-style="normal" text-decoration="none" family="微软雅黑" text-anchor="middle" size="13">11.rpc/http调用vc-chat-server进行消息推送</text></g></g><g id="ProcessOnG1088"><path id="ProcessOnPath1089" d="M376.0 383.0L376.0 372.0L975.7639320225002 372.0" stroke="#323232" stroke-width="2.0" stroke-dasharray="none" fill="none" marker-end="url(#ProcessOnMarker1090)"/><g id="ProcessOnG1092" transform="matrix(1.0,0.0,0.0,1.0,670.3819660112501,363.875)"><path id="ProcessOnPath1093" d="M0 0H97.0V16.25H0Z" fill="#fff" transform="matrix(1.0,0.0,0.0,1.0,-48.5,0.0)"/><text id="ProcessOnText1094" fill="#000000" font-size="13" x="0.0" y="13.325" font-family="微软雅黑" font-weight="normal" font-style="normal" text-decoration="none" family="微软雅黑" text-anchor="middle" size="13">12.查询路由信息</text></g></g><g id="ProcessOnG1095"><path id="ProcessOnPath1096" d="M326.0 406.0L326.0 497.4942920471376L133.11353277175704 497.4942920471376L133.11353277175704 573.7525161167754" stroke="#323232" stroke-width="2.0" stroke-dasharray="none" fill="none" marker-end="url(#ProcessOnMarker1097)"/><g id="ProcessOnG1099" transform="matrix(1.0,0.0,0.0,1.0,237.17480037462843,489.3692920471376)"><path id="ProcessOnPath1100" d="M0 0H140.0V16.25H0Z" fill="#fff" transform="matrix(1.0,0.0,0.0,1.0,-70.0,0.0)"/><text id="ProcessOnText1101" fill="#000000" font-size="13" x="0.0" y="13.325" font-family="微软雅黑" font-weight="normal" font-style="normal" text-decoration="none" family="微软雅黑" text-anchor="middle" size="13">5.验证用户accessToken</text></g></g><g id="ProcessOnG1102"><path id="ProcessOnPath1103" d="M304.75 394.5L92.5 394.5L92.5 249.25L107.26393202250021 249.25" stroke="#323232" stroke-width="2.0" stroke-dasharray="none" fill="none" marker-end="url(#ProcessOnMarker1104)"/><g id="ProcessOnG1106" transform="matrix(1.0,0.0,0.0,1.0,118.61803398874989,386.375)"><path id="ProcessOnPath1107" d="M0 0H71.0V16.25H0Z" fill="#fff" transform="matrix(1.0,0.0,0.0,1.0,-35.5,0.0)"/><text id="ProcessOnText1108" fill="#000000" font-size="13" x="0.0" y="13.325" font-family="微软雅黑" font-weight="normal" font-style="normal" text-decoration="none" family="微软雅黑" text-anchor="middle" size="13">13.推送消息</text></g></g><g id="ProcessOnG1109"><path id="ProcessOnPath1110" d="M180.75 298.5L180.75 340.5L342.75 340.5L342.75 367.2639320225002" stroke="#323232" stroke-width="2.0" stroke-dasharray="none" fill="none" marker-end="url(#ProcessOnMarker1111)"/><g id="ProcessOnG1113" transform="matrix(1.0,0.0,0.0,1.0,254.1319660112501,332.375)"><path id="ProcessOnPath1114" d="M0 0H63.00000000000003V16.25H0Z" fill="#fff" transform="matrix(1.0,0.0,0.0,1.0,-31.500000000000014,0.0)"/><text id="ProcessOnText1115" fill="#000000" font-size="13" x="0.0" y="13.325" font-family="微软雅黑" font-weight="normal" font-style="normal" text-decoration="none" family="微软雅黑" text-anchor="middle" size="13">4.转发代理</text></g></g><g id="ProcessOnG1116"><path id="ProcessOnPath1117" d="M489.5 110.375L180.75 110.375L180.75 184.7639320225002" stroke="#323232" stroke-width="2.0" stroke-dasharray="none" fill="none" marker-end="url(#ProcessOnMarker1118)"/><g id="ProcessOnG1120" transform="matrix(1.0,0.0,0.0,1.0,297.9305339887499,102.25)"><path id="ProcessOnPath1121" d="M0 0H126.0V16.25H0Z" fill="#fff" transform="matrix(1.0,0.0,0.0,1.0,-63.0,0.0)"/><text id="ProcessOnText1122" fill="#000000" font-size="13" x="0.0" y="13.325" font-family="微软雅黑" font-weight="normal" font-style="normal" text-decoration="none" family="微软雅黑" text-anchor="middle" size="13">3.携带Token建立连接</text></g></g><g id="ProcessOnG1123"><path id="ProcessOnPath1124" d="M472.5 242.25L355.75 242.25L355.75 249.25L254.2360679774998 249.25" stroke="#323232" stroke-width="2.0" stroke-dasharray="none" fill="none" marker-end="url(#ProcessOnMarker1125)"/><g id="ProcessOnG1127" transform="matrix(1.0,0.0,0.0,1.0,359.8680339887499,234.125)"><path id="ProcessOnPath1128" d="M0 0H126.0V16.25H0Z" fill="#fff" transform="matrix(1.0,0.0,0.0,1.0,-63.0,0.0)"/><text id="ProcessOnText1129" fill="#000000" font-size="13" x="0.0" y="13.325" font-family="微软雅黑" font-weight="normal" font-style="normal" text-decoration="none" family="微软雅黑" text-anchor="middle" size="13">3.携带Token建立连接</text></g></g><g id="ProcessOnG1130"><path id="ProcessOnPath1131" d="M540.0 130.0L676.9375 130.0L676.9375 171.375L798.6389320225002 171.375" stroke="#323232" stroke-width="2.0" stroke-dasharray="none" fill="none" marker-end="url(#ProcessOnMarker1132)"/><g id="ProcessOnG1134" transform="matrix(1.0,0.0,0.0,1.0,676.9375,134.94446601125009)"><path id="ProcessOnPath1135" d="M0 0H155.0V16.25H0Z" fill="#fff" transform="matrix(1.0,0.0,0.0,1.0,-77.5,0.0)"/><text id="ProcessOnText1136" fill="#000000" font-size="13" x="0.0" y="13.325" font-family="微软雅黑" font-weight="normal" font-style="normal" text-decoration="none" family="微软雅黑" text-anchor="middle" size="13">1.检测是否登录,获取Token</text></g></g><g id="ProcessOnG1137"><path id="ProcessOnPath1138" d="M552.0 221.0L682.9375 221.0L682.9375 171.375L798.6389320225002 171.375" stroke="#323232" stroke-width="2.0" stroke-dasharray="none" fill="none" marker-end="url(#ProcessOnMarker1139)"/><g id="ProcessOnG1141" transform="matrix(1.0,0.0,0.0,1.0,682.9375,195.68053398874991)"><path id="ProcessOnPath1142" d="M0 0H165.0V16.25H0Z" fill="#fff" transform="matrix(1.0,0.0,0.0,1.0,-82.5,0.0)"/><text id="ProcessOnText1143" fill="#000000" font-size="13" x="0.0" y="13.325" font-family="微软雅黑" font-weight="normal" font-style="normal" text-decoration="none" family="微软雅黑" text-anchor="middle" size="13">1.检测是否登录，获取Token</text></g></g><g id="ProcessOnG1144"><path id="ProcessOnPath1145" d="M152.0 200.0L152.0 42.875L515.0 42.875L515.0 57.638932022500214" stroke="#323232" stroke-width="2.0" stroke-dasharray="none" fill="none" marker-end="url(#ProcessOnMarker1146)"/><g id="ProcessOnG1148" transform="matrix(1.0,0.0,0.0,1.0,262.3194660112501,34.75)"><path id="ProcessOnPath1149" d="M0 0H71.0V16.25H0Z" fill="#fff" transform="matrix(1.0,0.0,0.0,1.0,-35.5,0.0)"/><text id="ProcessOnText1150" fill="#000000" font-size="13" x="0.0" y="13.325" font-family="微软雅黑" font-weight="normal" font-style="normal" text-decoration="none" family="微软雅黑" text-anchor="middle" size="13">14.消息转发</text></g></g><g id="ProcessOnG1151"><path id="ProcessOnPath1152" d="M239.0 225.0L269.0 225.0L269.0 175.25L512.5 175.25L512.5 190.0139320225002" stroke="#323232" stroke-width="2.0" stroke-dasharray="none" fill="none" marker-end="url(#ProcessOnMarker1153)"/><g id="ProcessOnG1155" transform="matrix(1.0,0.0,0.0,1.0,358.2569660112501,167.125)"><path id="ProcessOnPath1156" d="M0 0H71.0V16.25H0Z" fill="#fff" transform="matrix(1.0,0.0,0.0,1.0,-35.5,0.0)"/><text id="ProcessOnText1157" fill="#000000" font-size="13" x="0.0" y="13.325" font-family="微软雅黑" font-weight="normal" font-style="normal" text-decoration="none" family="微软雅黑" text-anchor="middle" size="13">14.消息转发</text></g></g><g id="ProcessOnG1158"><path id="ProcessOnPath1159" d="M540.5 110.375L857.875 110.375L857.875 145.6389320225002" stroke="#323232" stroke-width="2.0" stroke-dasharray="none" fill="none" marker-end="url(#ProcessOnMarker1160)"/><g id="ProcessOnG1162" transform="matrix(1.0,0.0,0.0,1.0,716.8194660112501,102.25)"><path id="ProcessOnPath1163" d="M0 0H63.0V16.25H0Z" fill="#fff" transform="matrix(1.0,0.0,0.0,1.0,-31.5,0.0)"/><text id="ProcessOnText1164" fill="#000000" font-size="13" x="0.0" y="13.325" font-family="微软雅黑" font-weight="normal" font-style="normal" text-decoration="none" family="微软雅黑" text-anchor="middle" size="13">8.发送消息</text></g></g><g id="ProcessOnG1165"><path id="ProcessOnPath1166" d="M552.5 242.25L857.875 242.25L857.875 197.1110679774998" stroke="#323232" stroke-width="2.0" stroke-dasharray="none" fill="none" marker-end="url(#ProcessOnMarker1167)"/><g id="ProcessOnG1169" transform="matrix(1.0,0.0,0.0,1.0,727.7569660112501,234.125)"><path id="ProcessOnPath1170" d="M0 0H63.0V16.25H0Z" fill="#fff" transform="matrix(1.0,0.0,0.0,1.0,-31.5,0.0)"/><text id="ProcessOnText1171" fill="#000000" font-size="13" x="0.0" y="13.325" font-family="微软雅黑" font-weight="normal" font-style="normal" text-decoration="none" family="微软雅黑" text-anchor="middle" size="13">8.发送消息</text></g></g><g id="ProcessOnG1172"><path id="ProcessOnPath1173" d="M879.0 161.0L879.0 131.0L1133.375 131.0L1133.375 642.0L125.0 642.0L125.0 627.2360679774998" stroke="#323232" stroke-width="2.0" stroke-dasharray="none" fill="none" marker-end="url(#ProcessOnMarker1174)"/><g id="ProcessOnG1176" transform="matrix(1.0,0.0,0.0,1.0,1019.4930339887499,617.625)"><path id="ProcessOnPath1177" d="M0 0H219.0V48.75H0Z" fill="#fff" transform="matrix(1.0,0.0,0.0,1.0,-109.5,0.0)"/><text id="ProcessOnText1178" fill="#000000" font-size="13" x="0.0" y="13.325" font-family="微软雅黑" font-weight="normal" font-style="normal" text-decoration="none" family="微软雅黑" text-anchor="middle" size="13">2.验证用户前台用户是否登录</text><text id="ProcessOnText1179" fill="#000000" font-size="13" x="0.0" y="29.575" font-family="微软雅黑" font-weight="normal" font-style="normal" text-decoration="none" family="微软雅黑" text-anchor="middle" size="13">如果未登录跳转到OAuth2服务器中</text><text id="ProcessOnText1180" fill="#000000" font-size="13" x="0.0" y="45.825" font-family="微软雅黑" font-weight="normal" font-style="normal" text-decoration="none" family="微软雅黑" text-anchor="middle" size="13">进行授权验证，验证成功后返回Token</text></g></g></g></g></svg>